<svg xmlns="http://www.w3.org/2000/svg" viewBox="0 0 303.188 303.188" width="24" height="24">
    <g>
      <path fill="#E8E8E8" d="M219.821,0H32.842v303.188h237.504V50.525L219.821,0z"/>
      <path fill="#FB3449" d="M230.013,149.935c-3.643-6.493-16.231-8.533-22.006-9.451c-4.552-0.724-9.199-0.94-13.803-0.936
        c-3.615-0.024-7.177,0.154-10.693,0.354c-1.296,0.087-2.579,0.199-3.861,0.31c-1.314-1.36-2.584-2.765-3.813-4.202
        c-7.82-9.257-14.134-19.755-19.279-30.664c1.366-5.271,2.459-10.772,3.119-16.485c1.205-10.427,1.619-22.31-2.288-32.251
        c-1.349-3.431-4.946-7.608-9.096-5.528c-4.771,2.392-6.113,9.169-6.502,13.973c-0.313,3.883-0.094,7.776,0.558,11.594
        c0.664,3.844,1.733,7.494,2.897,11.139c1.086,3.342,2.283,6.658,3.588,9.943c-0.828,2.586-1.707,5.127-2.63,7.603
        c-2.152,5.643-4.479,11.004-6.717,16.161c-1.18,2.557-2.335,5.06-3.465,7.507c-3.576,7.855-7.458,15.566-11.815,23.02
        c-10.163,3.585-19.283,7.741-26.857,12.625c-4.063,2.625-7.652,5.476-10.641,8.603c-2.822,2.952-5.69,6.783-5.941,11.024
        c-0.141,2.394,0.807,4.717,2.768,6.137c2.697,2.015,6.271,1.881,9.4,1.225c10.25-2.15,18.121-10.961,24.824-18.387
        c4.617-5.115,9.872-11.61,15.369-19.465c0.012-0.018,0.024-0.036,0.037-0.054c9.428-2.923,19.689-5.391,30.579-7.205
        c4.975-0.825,10.082-1.5,15.291-1.974c3.663,3.431,7.621,6.555,11.939,9.164c3.363,2.069,6.94,3.816,10.684,5.119
        c3.786,1.237,7.595,2.247,11.528,2.886c1.986,0.284,4.017,0.413,6.092,0.335c4.631-0.175,11.278-1.951,11.714-7.57
        C231.127,152.765,230.756,151.257,230.013,149.935z"/>
      <path fill="#FB3449" d="M227.64,25.263H32.842V0h186.979L227.64,25.263z"/>
      <path fill="#A4A9AD" d="M126.841,241.152c0,5.361-1.58,9.501-4.742,12.421c-3.162,2.921-7.652,4.381-13.472,4.381h-3.643
        v15.917H92.022v-47.979h16.606c6.06,0,10.611,1.324,13.652,3.971C125.321,232.51,126.841,236.273,126.841,241.152z
         M104.985,247.387h2.363c1.947,0,3.495-0.546,4.644-1.641c1.149-1.094,1.723-2.604,1.723-4.529c0-3.238-1.794-4.857-5.382-4.857
        h-3.348V247.387z"/>
      <path fill="#A4A9AD" d="M175.215,248.864c0,8.007-2.205,14.177-6.613,18.509s-10.606,6.498-18.591,6.498h-15.523v-47.979
        h16.606c7.701,0,13.646,1.969,17.836,5.907C173.119,235.737,175.215,241.426,175.215,248.864z M161.76,249.324
        c0-4.398-0.87-7.657-2.609-9.78c-1.739-2.122-4.381-3.183-7.926-3.183h-3.773v26.877h2.888c3.939,0,6.826-1.143,8.664-3.43
        C160.841,257.523,161.76,254.028,161.76,249.324z"/>
      <path fill="#A4A9AD" d="M196.579,273.871h-12.766v-47.979h28.355v10.403h-15.589v9.156h14.374v10.403h-14.374V273.871z"/>
      <polygon fill="#D1D3D3" points="219.821,50.525 270.346,50.525 219.821,0"/>
    </g>
  </svg>